<mxfile host="app.diagrams.net" agent="Mozilla/5.0 (Macintosh; Intel Mac OS X 10_15_7) AppleWebKit/537.36 (KHTML, like Gecko) Chrome/131.0.0.0 Safari/537.36" version="25.0.3">
  <diagram name="1" id="0">
    <mxGraphModel dx="-119" dy="1583" grid="1" gridSize="10" guides="1" tooltips="1" connect="1" arrows="1" fold="1" page="1" pageScale="1" pageWidth="827" pageHeight="1169" math="1" shadow="0">
      <root>
        <mxCell id="0" />
        <mxCell id="1" parent="0" />
        <mxCell id="YdOIpuUZ-WlntdFXvjwU-1" style="edgeStyle=orthogonalEdgeStyle;rounded=0;orthogonalLoop=1;jettySize=auto;html=1;entryX=0.5;entryY=0;entryDx=0;entryDy=0;fontFamily=Times New Roman;fontSize=10;" parent="1" source="YdOIpuUZ-WlntdFXvjwU-2" target="YdOIpuUZ-WlntdFXvjwU-4" edge="1">
          <mxGeometry relative="1" as="geometry" />
        </mxCell>
        <mxCell id="YdOIpuUZ-WlntdFXvjwU-2" value="&lt;p style=&quot;line-height: 1;&quot;&gt;&lt;font&gt;Начало&lt;/font&gt;&lt;/p&gt;" style="shape=stencil(vZXxboMgEMafhj9dUNwDLG57j6u9KimCQVbt2w9Bs6LVrZvOmJj7PvzdHZyRsKwpoUaSUAkVEvZKksSgrrgEo7QNrFN6OaU+bH0YjzE0NebGixfQHA4CvdMYrc7Y8qMZEFyWqLnpXfZG6Itd098sy5WUFsKVbALnxrcw4NK+SzsPG9Jfg6i2/AptB0ORXiXJ+8+xT8/7gOOd6g2xY/Wb17sdOKw43uvgNgPHv8eyzCpLw82yA+TnQqsPebxbzIkLkSvRf4fUP10ukjA6XOvN1NB/eDNjtCt1wa8uJ8eSrrJHBOh8kTBEeuLqaxgL0AVGFhSdBBTBbjYtYj2Xuwg63kRaGeg3Nci2Xq7g8qbj+H7BD3Q8JaR/6Jn+S88PnbKb3tkQOXVhcu3MKo3fjLT/LaxkXVzgUs8yONX/xpzwCQ==);whiteSpace=wrap;html=1;aspect=fixed;fontFamily=Times New Roman;fontSize=10;spacingBottom=4;" parent="1" vertex="1">
          <mxGeometry x="1202.55" y="-1060" width="175" height="50" as="geometry" />
        </mxCell>
        <mxCell id="YdOIpuUZ-WlntdFXvjwU-3" style="edgeStyle=orthogonalEdgeStyle;rounded=0;orthogonalLoop=1;jettySize=auto;html=1;entryX=0.5;entryY=0;entryDx=0;entryDy=0;fontFamily=Times New Roman;fontSize=10;" parent="1" source="YdOIpuUZ-WlntdFXvjwU-4" target="YdOIpuUZ-WlntdFXvjwU-6" edge="1">
          <mxGeometry relative="1" as="geometry" />
        </mxCell>
        <mxCell id="YdOIpuUZ-WlntdFXvjwU-4" value="Выделить строки текста в документе" style="shape=stencil(tVVRboQgED0Nvw1Ce4DGtvdg2Wkli0CA7ra37wiSrFHcdqvGxMx78uYN4yDhbeiEA8KoET0Q/kIYcx6ctxJCwACZLsOPNIeXHDYlFsGBjBk8C6/EQUNmQvT2BBd1jKOEMh14FQeWvxL6jO8MN2+lNQZFlDVhwlzxKCaUwbX0K4uN6b8nkUP9HiL40WRGCXv7vezD0z7CzU5+p7LF/eZ+txOeOm72atxmws39srxFpPZx8/Yg5OnD209zXDTzrrSWVluPYX6mXIRxOl7rxTgxDN6MKLQfxnZ9nG6Mfi0x4rPcCa0UjKVaDzd2Ip8m95fb2zNcNXWx3mXpoqCVqSus70nFBP+/C/4XG8utKVx1h9OyWYsSmn8fCfgB);whiteSpace=wrap;html=1;aspect=fixed;fontFamily=Times New Roman;fontSize=10;spacingBottom=4;rounded=0;shadow=0;sketch=0;spacingLeft=10;spacingRight=10;" parent="1" vertex="1">
          <mxGeometry x="1202.55" y="-990" width="175.03" height="50" as="geometry" />
        </mxCell>
        <mxCell id="akHB2Kz0gf9ZKaCGWyzg-9" style="edgeStyle=orthogonalEdgeStyle;rounded=0;orthogonalLoop=1;jettySize=auto;html=1;exitX=0.5;exitY=1;exitDx=0;exitDy=0;entryX=0.5;entryY=0;entryDx=0;entryDy=0;" edge="1" parent="1" source="YdOIpuUZ-WlntdFXvjwU-6" target="akHB2Kz0gf9ZKaCGWyzg-4">
          <mxGeometry relative="1" as="geometry" />
        </mxCell>
        <mxCell id="YdOIpuUZ-WlntdFXvjwU-6" value="Выделить отступы между строками текста" style="shape=stencil(tVVRboQgED0Nvw1Ce4DGtvdg2Wkli0CA7ra37wiSrFHcdqvGxMx78uYN4yDhbeiEA8KoET0Q/kIYcx6ctxJCwACZLsOPNIeXHDYlFsGBjBk8C6/EQUNmQvT2BBd1jKOEMh14FQeWvxL6jO8MN2+lNQZFlDVhwlzxKCaUwbX0K4uN6b8nkUP9HiL40WRGCXv7vezD0z7CzU5+p7LF/eZ+txOeOm72atxmws39srxFpPZx8/Yg5OnD209zXDTzrrSWVluPYX6mXIRxOl7rxTgxDN6MKLQfxnZ9nG6Mfi0x4rPcCa0UjKVaDzd2Ip8m95fb2zNcNXWx3mXpoqCVqSus70nFBP+/C/4XG8utKVx1h9OyWYsSmn8fCfgB);whiteSpace=wrap;html=1;aspect=fixed;fontFamily=Times New Roman;fontSize=10;spacingBottom=4;rounded=0;shadow=0;sketch=0;spacingLeft=10;spacingRight=10;" parent="1" vertex="1">
          <mxGeometry x="1202.59" y="-920" width="175.03" height="50" as="geometry" />
        </mxCell>
        <mxCell id="YdOIpuUZ-WlntdFXvjwU-7" style="edgeStyle=orthogonalEdgeStyle;rounded=0;orthogonalLoop=1;jettySize=auto;html=1;entryX=0.5;entryY=0;entryDx=0;entryDy=0;fontFamily=Times New Roman;fontSize=10;" parent="1" target="5YKajarl01aSrGda35CC-1" edge="1">
          <mxGeometry relative="1" as="geometry">
            <mxPoint x="1290.04" y="-420" as="targetPoint" />
            <mxPoint x="1290" y="-550" as="sourcePoint" />
          </mxGeometry>
        </mxCell>
        <mxCell id="5YKajarl01aSrGda35CC-3" style="edgeStyle=orthogonalEdgeStyle;rounded=0;orthogonalLoop=1;jettySize=auto;html=1;entryX=0.5;entryY=0;entryDx=0;entryDy=0;fontFamily=Times New Roman;fontSize=10;" parent="1" target="5YKajarl01aSrGda35CC-2" edge="1">
          <mxGeometry relative="1" as="geometry">
            <mxPoint x="1290" y="-480" as="sourcePoint" />
          </mxGeometry>
        </mxCell>
        <mxCell id="5YKajarl01aSrGda35CC-13" value="&lt;p style=&quot;line-height: 1;&quot;&gt;&lt;font&gt;Конец&lt;/font&gt;&lt;/p&gt;" style="shape=stencil(vZXxboMgEMafhj9dUNwDLG57j6u9KimCQVbt2w9Bs6LVrZvOmJj7PvzdHZyRsKwpoUaSUAkVEvZKksSgrrgEo7QNrFN6OaU+bH0YjzE0NebGixfQHA4CvdMYrc7Y8qMZEFyWqLnpXfZG6Itd098sy5WUFsKVbALnxrcw4NK+SzsPG9Jfg6i2/AptB0ORXiXJ+8+xT8/7gOOd6g2xY/Wb17sdOKw43uvgNgPHv8eyzCpLw82yA+TnQqsPebxbzIkLkSvRf4fUP10ukjA6XOvN1NB/eDNjtCt1wa8uJ8eSrrJHBOh8kTBEeuLqaxgL0AVGFhSdBBTBbjYtYj2Xuwg63kRaGeg3Nci2Xq7g8qbj+H7BD3Q8JaR/6Jn+S88PnbKb3tkQOXVhcu3MKo3fjLT/LaxkXVzgUs8yONX/xpzwCQ==);whiteSpace=wrap;html=1;aspect=fixed;fontFamily=Times New Roman;fontSize=10;spacingBottom=4;" parent="1" vertex="1">
          <mxGeometry x="1203.3300000000002" y="-310" width="175" height="50" as="geometry" />
        </mxCell>
        <mxCell id="akHB2Kz0gf9ZKaCGWyzg-12" style="edgeStyle=orthogonalEdgeStyle;rounded=0;orthogonalLoop=1;jettySize=auto;html=1;entryX=0.5;entryY=0;entryDx=0;entryDy=0;" edge="1" parent="1" source="akHB2Kz0gf9ZKaCGWyzg-1" target="akHB2Kz0gf9ZKaCGWyzg-3">
          <mxGeometry relative="1" as="geometry" />
        </mxCell>
        <mxCell id="akHB2Kz0gf9ZKaCGWyzg-1" value="&lt;p style=&quot;line-height: 1&quot;&gt;Цикл по всем отступам между строками в тексте&lt;/p&gt;" style="strokeWidth=1;html=1;shape=stencil(rVXBUoMwFPyaXJmQ1EOPivXoxYPnlD5LpiEvE7C1f2/gwQgCbU1lmIG3C7t5ZBOYzKpCOWCCW1UCk89MCIPonmCvbbgPREHoilN5ojLta1U5yGsCj8prtTVATFV7PMBJ7+pOQtsCvK4bVm4YfwzPNKfMcrQ2iGi01YgZ8EFMaRve5V8kxpMHsjl3NVUuOJRQgx+hP829EsDES7RTepvTW4TTuKPe95rT+9+d0jinTczX478mKknXN85VRGM8WUfbLXQns4AsRVRmW5Uf9h4/7W52kB/amBwN+lDStTVjQvLuuNykU83ymRA9XeIRBtM6uybmpXsFo+1QQdwv0W8N5/Gg7tFYRYzjvxWi+oj4mrnBCi4kIuCTULToQhJDBtHDlYjSZr2U/olAi9KvowW+AQ==);whiteSpace=wrap;fontSize=10;fontFamily=Times New Roman;spacingLeft=10;spacingRight=10;spacingBottom=4;aspect=fixed;" vertex="1" parent="1">
          <mxGeometry x="1202.55" y="-710" width="175" height="50" as="geometry" />
        </mxCell>
        <mxCell id="akHB2Kz0gf9ZKaCGWyzg-19" style="edgeStyle=orthogonalEdgeStyle;rounded=0;orthogonalLoop=1;jettySize=auto;html=1;entryX=0.5;entryY=0;entryDx=0;entryDy=0;" edge="1" parent="1" source="akHB2Kz0gf9ZKaCGWyzg-2" target="5YKajarl01aSrGda35CC-13">
          <mxGeometry relative="1" as="geometry" />
        </mxCell>
        <mxCell id="akHB2Kz0gf9ZKaCGWyzg-2" value="&lt;p style=&quot;line-height: 1&quot;&gt;Конец цикла по всем отступам между строками в тексте&lt;/p&gt;" style="strokeWidth=1;html=1;shape=stencil(rVTBUoMwEP2aXJmQtDN6dBCPvXjwnNJVMk2zTMBW/96FBS0itEYZZmDfwnt52d0IndWlqUAo6c0BhL4XSjnEKvc7eiO4ZGwlOTxxmA6xqSsoGgaPJlizdcCZugm4h5PdNT2F9SUE27RZnQt5R9+0t84K9J5ILPp6lDnLE5mxnv6Vb0wmkzXLvPcxRxUpHKCBMEK/rG0YEOohWim9TukxQmnsaNC9pPT0e6U0TimP2T35rVDJzZU7uIkwJpPbaLkZdzojZK5FdbY1xf4l4CvNy0+LfLbOFegwUMjPTkwoLftr2WRl2vGZJIb0AY8w20BLzAOBs/6M4HOs/49CrSM41LiIq5h1/J0ixkjhsIaFehI+KWmHzvQRdRAGuNBgfNTO9e6EoEP52O+ADw==);whiteSpace=wrap;fontSize=10;fontFamily=Times New Roman;spacingLeft=10;spacingRight=10;spacingBottom=4;aspect=fixed;" vertex="1" parent="1">
          <mxGeometry x="1202.55" y="-380" width="175" height="50" as="geometry" />
        </mxCell>
        <mxCell id="akHB2Kz0gf9ZKaCGWyzg-13" style="edgeStyle=orthogonalEdgeStyle;rounded=0;orthogonalLoop=1;jettySize=auto;html=1;entryX=0.5;entryY=0;entryDx=0;entryDy=0;" edge="1" parent="1" source="akHB2Kz0gf9ZKaCGWyzg-3" target="akHB2Kz0gf9ZKaCGWyzg-5">
          <mxGeometry relative="1" as="geometry">
            <Array as="points">
              <mxPoint x="1398" y="-615" />
            </Array>
          </mxGeometry>
        </mxCell>
        <mxCell id="akHB2Kz0gf9ZKaCGWyzg-3" value="&lt;p style=&quot;line-height: 1&quot;&gt;Высота&lt;br&gt;строки текста больше мин.&lt;br&gt;в 1.35 раз?&lt;/p&gt;" style="shape=stencil(tZTdboQgEIWfhtsGYZu9bmz7HixOK1kEA3S3ffsdAdu1/rQxakx0zuA3B0YgvPS1aIEwakQDhD8TxiqQyitr8BX1OokHmsJrCos+Fr4FGZJ4EU6Jk4aU8cHZM1xVFTJCmRqcCl2WvxD6hGO6m5fSGoMQLOkHmbs8woQy+C39TLBc/msQtchvIIDLJpNK2Ov/sQ+P+4CLnfwOsb37zf1uBx46LvZq3GbgYj2Wl6jM/dy8PAl5fnf2w1STZt6U1tJq6zBMz1iLME7ztTyZVnQbb5To0429wM8sj5P7aRrdE7Qyd4TvEyEj1jB+uTisQKwxIbX1sLCSqI8WM6ozHcTeWQd/tDYdjwtVZwfE0qMKUU2HeRRu);whiteSpace=wrap;html=1;aspect=fixed;fontFamily=Times New Roman;fontSize=10;spacingBottom=4;rounded=0;shadow=0;sketch=0;spacingLeft=20;spacingRight=20;" vertex="1" parent="1">
          <mxGeometry x="1203.33" y="-640" width="175" height="50" as="geometry" />
        </mxCell>
        <mxCell id="akHB2Kz0gf9ZKaCGWyzg-10" style="edgeStyle=orthogonalEdgeStyle;rounded=0;orthogonalLoop=1;jettySize=auto;html=1;exitX=0.5;exitY=1;exitDx=0;exitDy=0;entryX=0.5;entryY=0;entryDx=0;entryDy=0;" edge="1" parent="1" source="akHB2Kz0gf9ZKaCGWyzg-4" target="akHB2Kz0gf9ZKaCGWyzg-6">
          <mxGeometry relative="1" as="geometry" />
        </mxCell>
        <mxCell id="akHB2Kz0gf9ZKaCGWyzg-4" value="Определить минимальную высоту строки текста" style="shape=stencil(tVVRboQgED0Nvw1Ce4DGtvdg2Wkli0CA7ra37wiSrFHcdqvGxMx78uYN4yDhbeiEA8KoET0Q/kIYcx6ctxJCwACZLsOPNIeXHDYlFsGBjBk8C6/EQUNmQvT2BBd1jKOEMh14FQeWvxL6jO8MN2+lNQZFlDVhwlzxKCaUwbX0K4uN6b8nkUP9HiL40WRGCXv7vezD0z7CzU5+p7LF/eZ+txOeOm72atxmws39srxFpPZx8/Yg5OnD209zXDTzrrSWVluPYX6mXIRxOl7rxTgxDN6MKLQfxnZ9nG6Mfi0x4rPcCa0UjKVaDzd2Ip8m95fb2zNcNXWx3mXpoqCVqSus70nFBP+/C/4XG8utKVx1h9OyWYsSmn8fCfgB);whiteSpace=wrap;html=1;aspect=fixed;fontFamily=Times New Roman;fontSize=10;spacingBottom=4;rounded=0;shadow=0;sketch=0;spacingLeft=10;spacingRight=10;" vertex="1" parent="1">
          <mxGeometry x="1202.59" y="-850" width="175.03" height="50" as="geometry" />
        </mxCell>
        <mxCell id="akHB2Kz0gf9ZKaCGWyzg-14" style="edgeStyle=orthogonalEdgeStyle;rounded=0;orthogonalLoop=1;jettySize=auto;html=1;entryX=0.5;entryY=0;entryDx=0;entryDy=0;" edge="1" parent="1" source="akHB2Kz0gf9ZKaCGWyzg-5" target="akHB2Kz0gf9ZKaCGWyzg-7">
          <mxGeometry relative="1" as="geometry">
            <Array as="points">
              <mxPoint x="1291" y="-565" />
              <mxPoint x="1291" y="-560" />
              <mxPoint x="1290" y="-560" />
            </Array>
          </mxGeometry>
        </mxCell>
        <mxCell id="akHB2Kz0gf9ZKaCGWyzg-5" value="&lt;p style=&quot;line-height: 1&quot;&gt;Отношение&lt;br&gt;размеров тек. и след. отступов больше 1.2?&lt;/p&gt;" style="shape=stencil(tZTdboQgEIWfhtsGYZu9bmz7HixOK1kEA3S3ffsdAdu1/rQxakx0zuA3B0YgvPS1aIEwakQDhD8TxiqQyitr8BX1OokHmsJrCos+Fr4FGZJ4EU6Jk4aU8cHZM1xVFTJCmRqcCl2WvxD6hGO6m5fSGoMQLOkHmbs8woQy+C39TLBc/msQtchvIIDLJpNK2Ov/sQ+P+4CLnfwOsb37zf1uBx46LvZq3GbgYj2Wl6jM/dy8PAl5fnf2w1STZt6U1tJq6zBMz1iLME7ztTyZVnQbb5To0429wM8sj5P7aRrdE7Qyd4TvEyEj1jB+uTisQKwxIbX1sLCSqI8WM6ozHcTeWQd/tDYdjwtVZwfE0qMKUU2HeRRu);whiteSpace=wrap;html=1;aspect=fixed;fontFamily=Times New Roman;fontSize=10;spacingBottom=4;rounded=0;shadow=0;sketch=0;spacingLeft=20;spacingRight=20;" vertex="1" parent="1">
          <mxGeometry x="1310.7099999999998" y="-590" width="175" height="50" as="geometry" />
        </mxCell>
        <mxCell id="akHB2Kz0gf9ZKaCGWyzg-6" value="&lt;p style=&quot;line-height: 1&quot;&gt;image_correct = True&lt;/p&gt;" style="shape=stencil(tVTRboMwDPyavFYh2T5gYtt/pKlXotIkcrJ1/fuaGKQiBq0mQEjgu3B3Bhyh69SYCEJJb84g9LtQKmKwkBLdEdww9iK5vHBZDbVJEWxm8MegM/sWmEkZwwku7pB7CecbQJc7Vn8I+UZrulPXNnhPIi74NGLueBIzztOz8pfFevvrqIqkf4YM2IdkVKjP52V3r9sIVxvlHcsO6VfPu57wOHG11YdbTbj6v6yuCZn7uXW9N/Z0xPDtD3+G+XJta0MbkEq+Fi+htOyP5Wai6QZvQgw0dmO7PE4PRn/OmPCJd0FnGqZWA8KDN8G7yYLr7IJiPXEoKG99BbgB);whiteSpace=wrap;html=1;aspect=fixed;fontFamily=Times New Roman;fontSize=10;spacingBottom=4;" vertex="1" parent="1">
          <mxGeometry x="1202.62" y="-780" width="175" height="50" as="geometry" />
        </mxCell>
        <mxCell id="akHB2Kz0gf9ZKaCGWyzg-15" style="edgeStyle=orthogonalEdgeStyle;rounded=0;orthogonalLoop=1;jettySize=auto;html=1;entryX=0.5;entryY=0;entryDx=0;entryDy=0;" edge="1" parent="1" source="akHB2Kz0gf9ZKaCGWyzg-7" target="akHB2Kz0gf9ZKaCGWyzg-8">
          <mxGeometry relative="1" as="geometry" />
        </mxCell>
        <mxCell id="akHB2Kz0gf9ZKaCGWyzg-7" value="&lt;p style=&quot;line-height: 1&quot;&gt;image_correct = False&lt;/p&gt;" style="shape=stencil(tVTRboMwDPyavFYh2T5gYtt/pKlXotIkcrJ1/fuaGKQiBq0mQEjgu3B3Bhyh69SYCEJJb84g9LtQKmKwkBLdEdww9iK5vHBZDbVJEWxm8MegM/sWmEkZwwku7pB7CecbQJc7Vn8I+UZrulPXNnhPIi74NGLueBIzztOz8pfFevvrqIqkf4YM2IdkVKjP52V3r9sIVxvlHcsO6VfPu57wOHG11YdbTbj6v6yuCZn7uXW9N/Z0xPDtD3+G+XJta0MbkEq+Fi+htOyP5Wai6QZvQgw0dmO7PE4PRn/OmPCJd0FnGqZWA8KDN8G7yYLr7IJiPXEoKG99BbgB);whiteSpace=wrap;html=1;aspect=fixed;fontFamily=Times New Roman;fontSize=10;spacingBottom=4;" vertex="1" parent="1">
          <mxGeometry x="1202.55" y="-540" width="175" height="50" as="geometry" />
        </mxCell>
        <mxCell id="akHB2Kz0gf9ZKaCGWyzg-17" style="edgeStyle=orthogonalEdgeStyle;rounded=0;orthogonalLoop=1;jettySize=auto;html=1;exitX=0.5;exitY=1;exitDx=0;exitDy=0;entryX=0.5;entryY=0;entryDx=0;entryDy=0;entryPerimeter=0;" edge="1" parent="1" source="akHB2Kz0gf9ZKaCGWyzg-8" target="akHB2Kz0gf9ZKaCGWyzg-2">
          <mxGeometry relative="1" as="geometry">
            <mxPoint x="1220" y="-360" as="targetPoint" />
            <Array as="points">
              <mxPoint x="1291" y="-410" />
              <mxPoint x="1400" y="-410" />
              <mxPoint x="1400" y="-400" />
              <mxPoint x="1290" y="-400" />
            </Array>
          </mxGeometry>
        </mxCell>
        <mxCell id="akHB2Kz0gf9ZKaCGWyzg-8" value="Выделить красным цветом текущий и следующий отступы" style="shape=stencil(tVVRboQgED0Nvw1Ce4DGtvdg2Wkli0CA7ra37wiSrFHcdqvGxMx78uYN4yDhbeiEA8KoET0Q/kIYcx6ctxJCwACZLsOPNIeXHDYlFsGBjBk8C6/EQUNmQvT2BBd1jKOEMh14FQeWvxL6jO8MN2+lNQZFlDVhwlzxKCaUwbX0K4uN6b8nkUP9HiL40WRGCXv7vezD0z7CzU5+p7LF/eZ+txOeOm72atxmws39srxFpPZx8/Yg5OnD209zXDTzrrSWVluPYX6mXIRxOl7rxTgxDN6MKLQfxnZ9nG6Mfi0x4rPcCa0UjKVaDzd2Ip8m95fb2zNcNXWx3mXpoqCVqSus70nFBP+/C/4XG8utKVx1h9OyWYsSmn8fCfgB);whiteSpace=wrap;html=1;aspect=fixed;fontFamily=Times New Roman;fontSize=10;spacingBottom=4;rounded=0;shadow=0;sketch=0;spacingLeft=10;spacingRight=10;" vertex="1" parent="1">
          <mxGeometry x="1203.23" y="-470" width="175.03" height="50" as="geometry" />
        </mxCell>
        <mxCell id="akHB2Kz0gf9ZKaCGWyzg-11" style="edgeStyle=orthogonalEdgeStyle;rounded=0;orthogonalLoop=1;jettySize=auto;html=1;entryX=0.5;entryY=0;entryDx=0;entryDy=0;entryPerimeter=0;" edge="1" parent="1" source="akHB2Kz0gf9ZKaCGWyzg-6" target="akHB2Kz0gf9ZKaCGWyzg-1">
          <mxGeometry relative="1" as="geometry" />
        </mxCell>
        <mxCell id="akHB2Kz0gf9ZKaCGWyzg-16" style="edgeStyle=orthogonalEdgeStyle;rounded=0;orthogonalLoop=1;jettySize=auto;html=1;entryX=0.5;entryY=0;entryDx=0;entryDy=0;entryPerimeter=0;" edge="1" parent="1" source="akHB2Kz0gf9ZKaCGWyzg-5" target="akHB2Kz0gf9ZKaCGWyzg-2">
          <mxGeometry relative="1" as="geometry">
            <Array as="points">
              <mxPoint x="1510" y="-565" />
              <mxPoint x="1510" y="-410" />
              <mxPoint x="1400" y="-410" />
              <mxPoint x="1400" y="-400" />
              <mxPoint x="1290" y="-400" />
            </Array>
          </mxGeometry>
        </mxCell>
        <mxCell id="akHB2Kz0gf9ZKaCGWyzg-18" style="edgeStyle=orthogonalEdgeStyle;rounded=0;orthogonalLoop=1;jettySize=auto;html=1;entryX=0.5;entryY=0;entryDx=0;entryDy=0;entryPerimeter=0;" edge="1" parent="1" source="akHB2Kz0gf9ZKaCGWyzg-3" target="akHB2Kz0gf9ZKaCGWyzg-2">
          <mxGeometry relative="1" as="geometry">
            <Array as="points">
              <mxPoint x="1180" y="-615" />
              <mxPoint x="1180" y="-400" />
              <mxPoint x="1290" y="-400" />
            </Array>
          </mxGeometry>
        </mxCell>
        <mxCell id="akHB2Kz0gf9ZKaCGWyzg-20" value="&lt;font face=&quot;Times New Roman&quot;&gt;Да&lt;/font&gt;" style="text;html=1;align=center;verticalAlign=middle;resizable=0;points=[];autosize=1;strokeColor=none;fillColor=none;fontSize=10;" vertex="1" parent="1">
          <mxGeometry x="1378.33" y="-640" width="30" height="30" as="geometry" />
        </mxCell>
        <mxCell id="akHB2Kz0gf9ZKaCGWyzg-24" value="&lt;font face=&quot;Times New Roman&quot;&gt;Да&lt;/font&gt;" style="text;html=1;align=center;verticalAlign=middle;resizable=0;points=[];autosize=1;strokeColor=none;fillColor=none;fontSize=10;" vertex="1" parent="1">
          <mxGeometry x="1260" y="-585" width="30" height="30" as="geometry" />
        </mxCell>
      </root>
    </mxGraphModel>
  </diagram>
</mxfile>
